<svg width="36" height="48" viewBox="0 0 36 48" fill="none" xmlns="http://www.w3.org/2000/svg">
<path d="M13.3325 24.2131V17.5196C13.3325 17.2071 13.1716 16.9137 12.916 16.7432C12.3006 16.3361 11.9408 15.6545 11.9408 14.9255V7.98585C11.9408 5.0604 14.3266 2.6746 17.2521 2.6746H18.7479C21.6734 2.6746 24.0592 5.0604 24.0592 7.98585V14.9255C24.0592 15.6545 23.6899 16.3361 23.084 16.7432C22.8189 16.9137 22.6674 17.2071 22.6674 17.5196V24.2131C22.6674 24.6864 22.942 25.1219 23.368 25.3302C24.2485 25.7563 28.8308 28.0758 33.0532 31.5503C33.6118 32.0142 33.9337 32.6959 33.9337 33.4249V38.1776C33.9337 38.6983 34.3503 39.1148 34.871 39.1148C35.3917 39.1148 35.8083 38.6983 35.8083 38.1776V33.4249C35.8083 32.1279 35.2402 30.916 34.2461 30.1018C30.2698 26.8356 25.9905 24.5539 24.542 23.8249V17.9835C25.4225 17.2166 25.9337 16.1089 25.9337 14.916V7.98585C25.9337 4.01898 22.7148 0.800049 18.7479 0.800049H17.2521C13.2852 0.800049 10.0663 4.01898 10.0663 7.98585V14.9255C10.0663 16.1089 10.5775 17.2261 11.458 17.9929V23.8344C10.0189 24.5634 5.73017 26.845 1.75384 30.1113C0.759758 30.9255 0.191711 32.1373 0.191711 33.4344V38.187C0.191711 38.7077 0.608279 39.1243 1.12899 39.1243C1.6497 39.1243 2.06627 38.7077 2.06627 38.187V33.4344C2.06627 32.7054 2.38816 32.0237 2.94674 31.5598C7.16923 28.0853 11.7609 25.7752 12.6319 25.3397C13.058 25.1219 13.3325 24.6864 13.3325 24.2131Z" fill="#59606A"/>
<path d="M20.2911 25.1978C19.7704 25.1978 19.3539 25.6143 19.3539 26.135C19.3539 26.5327 19.1834 26.883 18.9184 27.1291C18.8616 27.167 18.8047 27.2049 18.7574 27.2617C18.5397 27.4037 18.2746 27.4983 18 27.4983C17.2521 27.4983 16.6367 26.8924 16.6367 26.135C16.6367 25.6143 16.2201 25.1978 15.6994 25.1978C15.1787 25.1978 14.7621 25.6143 14.7621 26.135C14.7621 26.9019 15.0272 27.6025 15.4817 28.1611L14.7905 44.2273C14.7811 44.5019 14.8947 44.7765 15.103 44.9658L17.3089 46.954C17.4888 47.1149 17.716 47.2001 17.9337 47.2001C18.161 47.2001 18.3882 47.1149 18.5586 46.954L20.7929 44.9374C21.0012 44.7481 21.1148 44.483 21.1053 44.1989L20.3858 28.322C20.916 27.7445 21.2379 26.9776 21.2379 26.1445C21.2284 25.6143 20.8024 25.1978 20.2911 25.1978ZM17.9148 44.9942L16.6651 43.8676L17.29 29.2972C17.5172 29.3445 17.7444 29.3729 17.9811 29.3729C18.1704 29.3729 18.3503 29.354 18.5302 29.3256L19.1834 43.8392L17.9148 44.9942Z" fill="#3C92CA"/>
</svg>
