<svg width="48" height="48" viewBox="0 0 48 48" fill="none" xmlns="http://www.w3.org/2000/svg">
<mask id="mask0" mask-type="alpha" maskUnits="userSpaceOnUse" x="0" y="0" width="48" height="48">
<path d="M0 4C0 1.79086 1.79086 0 4 0H44C46.2091 0 48 1.79086 48 4V44C48 46.2091 46.2091 48 44 48H4C1.79086 48 0 46.2091 0 44V4Z" fill="white"/>
</mask>
<g mask="url(#mask0)">
<rect width="48" height="48" fill="#F0F0F0"/>
</g>
<g clip-path="url(#clip0)">
<path d="M36.971 13.434H11.0292C10.7948 13.434 10.6047 13.624 10.6047 13.8584V34.141C10.6047 34.3755 10.7948 34.5655 11.0292 34.5655H36.971C37.2055 34.5655 37.3954 34.3755 37.3954 34.141V13.8584C37.3954 13.624 37.2055 13.434 36.971 13.434ZM34.8486 31.1814L29.0108 25.1358C28.9463 25.0691 28.8408 25.0648 28.7712 25.1261L24.7222 28.6898L19.5469 22.3176C19.5133 22.276 19.4641 22.2523 19.4085 22.2535C19.355 22.2546 19.305 22.2803 19.273 22.3232L13.1515 30.5371V15.9808H34.8486V31.1814Z" fill="#7A828E"/>
<path d="M28.4374 22.1124C29.5867 22.1124 30.5197 21.1801 30.5197 20.0298C30.5197 18.88 29.5867 17.9471 28.4374 17.9471C27.2871 17.9471 26.3551 18.88 26.3551 20.0298C26.3551 21.18 27.2872 22.1124 28.4374 22.1124Z" fill="#7A828E"/>
<path fill-rule="evenodd" clip-rule="evenodd" d="M37.3955 25.6744H34.8839V28.7441H31.535V31.2558H34.8839V34.6046H37.3955V31.2558H40.4653V28.7441H37.3955V25.6744Z" fill="#7A828E"/>
<path d="M34.8839 25.6744V25.1744H34.3839V25.6744H34.8839ZM37.3955 25.6744H37.8955V25.1744H37.3955V25.6744ZM34.8839 28.7441V29.2441H35.3839V28.7441H34.8839ZM31.535 28.7441V28.2441H31.035V28.7441H31.535ZM31.535 31.2558H31.035V31.7558H31.535V31.2558ZM34.8839 31.2558H35.3839V30.7558H34.8839V31.2558ZM34.8839 34.6046H34.3839V35.1046H34.8839V34.6046ZM37.3955 34.6046V35.1046H37.8955V34.6046H37.3955ZM37.3955 31.2558V30.7558H36.8955V31.2558H37.3955ZM40.4653 31.2558V31.7558H40.9653V31.2558H40.4653ZM40.4653 28.7441H40.9653V28.2441H40.4653V28.7441ZM37.3955 28.7441H36.8955V29.2441H37.3955V28.7441ZM34.8839 26.1744H37.3955V25.1744H34.8839V26.1744ZM35.3839 28.7441V25.6744H34.3839V28.7441H35.3839ZM31.535 29.2441H34.8839V28.2441H31.535V29.2441ZM32.035 31.2558V28.7441H31.035V31.2558H32.035ZM34.8839 30.7558H31.535V31.7558H34.8839V30.7558ZM35.3839 34.6046V31.2558H34.3839V34.6046H35.3839ZM37.3955 34.1046H34.8839V35.1046H37.3955V34.1046ZM36.8955 31.2558V34.6046H37.8955V31.2558H36.8955ZM40.4653 30.7558H37.3955V31.7558H40.4653V30.7558ZM39.9653 28.7441V31.2558H40.9653V28.7441H39.9653ZM37.3955 29.2441H40.4653V28.2441H37.3955V29.2441ZM36.8955 25.6744V28.7441H37.8955V25.6744H36.8955Z" fill="#E4E4E4"/>
</g>
<defs>
<clipPath id="clip0">
<rect width="30.1395" height="21.2093" fill="white" transform="translate(10.6047 13.3953)"/>
</clipPath>
</defs>
</svg>
