<svg width="30" height="30" viewBox="0 0 30 30" fill="none" xmlns="http://www.w3.org/2000/svg">
<circle cx="15" cy="15" r="15" fill="#F3F3F3"/>
<path d="M20.9999 16.8V12C20.9999 8.68619 18.3136 6 14.9998 6C11.686 6 8.99986 8.68619 8.99986 12V16.8L6.59985 21.6H12.0605C12.3383 22.9692 13.5485 24 14.9998 24C16.4512 24 17.6614 22.9692 17.9392 21.6H23.3998L20.9999 16.8ZM14.9998 22.8C14.2174 22.8 13.5581 22.2978 13.3102 21.6H16.69C16.4416 22.2978 15.7822 22.8 14.9998 22.8ZM8.39987 20.4L10.1999 16.8V12C10.1999 9.34921 12.349 7.20002 14.9998 7.20002C17.6506 7.20002 19.7998 9.34921 19.7998 12V16.8L21.5998 20.4H8.39987V20.4Z" fill="#59606A"/>
</svg>