<svg width="30" height="30" viewBox="0 0 30 30" fill="none" xmlns="http://www.w3.org/2000/svg">
<circle cx="15" cy="15" r="15" fill="#F3F3F3"/>
<path d="M12.5858 15.1102V11.648C12.5858 11.4864 12.5026 11.3346 12.3703 11.2465C12.052 11.0359 11.8659 10.6833 11.8659 10.3063V6.71679C11.8659 5.20363 13.1 3.9696 14.6131 3.9696H15.3869C16.9 3.9696 18.1341 5.20363 18.1341 6.71679V10.3063C18.1341 10.6833 17.9431 11.0359 17.6297 11.2465C17.4926 11.3346 17.4142 11.4864 17.4142 11.648V15.1102C17.4142 15.355 17.5562 15.5803 17.7766 15.688C18.232 15.9084 20.6021 17.1081 22.7862 18.9053C23.0751 19.1453 23.2416 19.4979 23.2416 19.8749V22.3332C23.2416 22.6025 23.457 22.818 23.7264 22.818C23.9957 22.818 24.2112 22.6025 24.2112 22.3332V19.8749C24.2112 19.204 23.9174 18.5772 23.4032 18.1561C21.3465 16.4666 19.133 15.2865 18.3838 14.9094V11.888C18.8392 11.4913 19.1037 10.9184 19.1037 10.3014V6.71679C19.1037 4.66497 17.4387 3 15.3869 3H14.6131C12.5613 3 10.8963 4.66497 10.8963 6.71679V10.3063C10.8963 10.9184 11.1608 11.4962 11.6162 11.8929V14.9143C10.8719 15.2914 8.65354 16.4715 6.59682 18.161C6.08264 18.5821 5.78882 19.2089 5.78882 19.8798V22.3381C5.78882 22.6074 6.00428 22.8229 6.27362 22.8229C6.54295 22.8229 6.75842 22.6074 6.75842 22.3381V19.8798C6.75842 19.5028 6.92491 19.1502 7.21383 18.9102C9.39788 17.113 11.7729 15.9182 12.2234 15.6929C12.4438 15.5803 12.5858 15.355 12.5858 15.1102Z" fill="#59606A"/>
<path d="M16.185 15.6194C15.9157 15.6194 15.7002 15.8349 15.7002 16.1042C15.7002 16.3099 15.6121 16.4911 15.475 16.6184C15.4456 16.638 15.4162 16.6576 15.3917 16.687C15.2791 16.7604 15.142 16.8094 15 16.8094C14.6131 16.8094 14.2948 16.496 14.2948 16.1042C14.2948 15.8349 14.0793 15.6194 13.81 15.6194C13.5407 15.6194 13.3252 15.8349 13.3252 16.1042C13.3252 16.5009 13.4623 16.8633 13.6974 17.1522L13.3399 25.4623C13.335 25.6043 13.3938 25.7464 13.5015 25.8443L14.6425 26.8727C14.7355 26.9559 14.853 27 14.9657 27C15.0832 27 15.2007 26.9559 15.2889 26.8727L16.4446 25.8296C16.5523 25.7317 16.6111 25.5946 16.6062 25.4476L16.234 17.2354C16.5082 16.9367 16.6747 16.5401 16.6747 16.1091C16.6698 15.8349 16.4495 15.6194 16.185 15.6194ZM14.9559 25.859L14.3095 25.2763L14.6327 17.7398C14.7502 17.7643 14.8677 17.779 14.9902 17.779C15.0881 17.779 15.1811 17.7692 15.2742 17.7545L15.6121 25.2616L14.9559 25.859Z" fill="#3C92CA"/>
</svg>
