<svg width="64" height="61" viewBox="0 0 64 61" fill="none" xmlns="http://www.w3.org/2000/svg">
<circle cx="29" cy="29" r="29" fill="#F3F3F3"/>
<path d="M24.3325 29.2131V22.5196C24.3325 22.2071 24.1716 21.9137 23.916 21.7432C23.3006 21.3361 22.9408 20.6545 22.9408 19.9255V12.9858C22.9408 10.0604 25.3266 7.6746 28.2521 7.6746H29.7479C32.6734 7.6746 35.0592 10.0604 35.0592 12.9858V19.9255C35.0592 20.6545 34.6899 21.3361 34.084 21.7432C33.8189 21.9137 33.6674 22.2071 33.6674 22.5196V29.2131C33.6674 29.6864 33.942 30.1219 34.368 30.3302C35.2485 30.7563 39.8308 33.0758 44.0532 36.5503C44.6118 37.0142 44.9337 37.6959 44.9337 38.4249V43.1776C44.9337 43.6983 45.3503 44.1148 45.871 44.1148C46.3917 44.1148 46.8083 43.6983 46.8083 43.1776V38.4249C46.8083 37.1279 46.2402 35.916 45.2461 35.1018C41.2698 31.8356 36.9905 29.5539 35.542 28.8249V22.9835C36.4225 22.2166 36.9337 21.1089 36.9337 19.916V12.9858C36.9337 9.01898 33.7148 5.80005 29.7479 5.80005H28.2521C24.2852 5.80005 21.0663 9.01898 21.0663 12.9858V19.9255C21.0663 21.1089 21.5775 22.2261 22.458 22.9929V28.8344C21.0189 29.5634 16.7302 31.845 12.7538 35.1113C11.7598 35.9255 11.1917 37.1373 11.1917 38.4344V43.187C11.1917 43.7077 11.6083 44.1243 12.129 44.1243C12.6497 44.1243 13.0663 43.7077 13.0663 43.187V38.4344C13.0663 37.7054 13.3882 37.0237 13.9467 36.5598C18.1692 33.0853 22.7609 30.7752 23.6319 30.3397C24.058 30.1219 24.3325 29.6864 24.3325 29.2131Z" fill="#59606A"/>
<path d="M31.2911 30.1978C30.7704 30.1978 30.3539 30.6143 30.3539 31.135C30.3539 31.5327 30.1834 31.883 29.9184 32.1291C29.8616 32.167 29.8047 32.2049 29.7574 32.2617C29.5397 32.4037 29.2746 32.4983 29 32.4983C28.2521 32.4983 27.6367 31.8924 27.6367 31.135C27.6367 30.6143 27.2201 30.1978 26.6994 30.1978C26.1787 30.1978 25.7621 30.6143 25.7621 31.135C25.7621 31.9019 26.0272 32.6025 26.4817 33.1611L25.7905 49.2273C25.7811 49.5019 25.8947 49.7765 26.103 49.9658L28.3089 51.954C28.4888 52.1149 28.716 52.2001 28.9337 52.2001C29.161 52.2001 29.3882 52.1149 29.5586 51.954L31.7929 49.9374C32.0012 49.7481 32.1148 49.483 32.1053 49.1989L31.3858 33.322C31.916 32.7445 32.2379 31.9776 32.2379 31.1445C32.2284 30.6143 31.8024 30.1978 31.2911 30.1978ZM28.9148 49.9942L27.6651 48.8676L28.29 34.2972C28.5172 34.3445 28.7444 34.3729 28.9811 34.3729C29.1704 34.3729 29.3503 34.354 29.5302 34.3256L30.1834 48.8392L28.9148 49.9942Z" fill="#3C92CA"/>
<g filter="url(#filter0_d)">
<path fill-rule="evenodd" clip-rule="evenodd" d="M50 58C56.6274 58 62 52.6274 62 46C62 39.3726 56.6274 34 50 34C43.3726 34 38 39.3726 38 46C38 52.6274 43.3726 58 50 58Z" fill="white"/>
</g>
<path fill-rule="evenodd" clip-rule="evenodd" d="M39 46C39 39.9251 43.9248 35 49.9997 35C56.0746 35 60.9999 39.9249 61 46C61 52.0748 56.0746 57 49.9997 57C43.9248 57 39 52.075 39 46ZM43.66 51.1073C43.66 51.3992 43.8964 51.6354 44.1884 51.6354V51.6355H54.7873V50.9884H53.8301H53.0693V50.2276V49.0241V48.4099H52.323L50.472 45.5238L49.7416 46.6627L50.8623 48.41H50.1846L49.4028 47.1912L47.8287 44.7368L45.4733 48.41H44.8904V41.5879H55.0975V46.5453H55.5483H56.3399V40.8926C56.3399 40.6009 56.1035 40.3644 55.8116 40.3644H44.1884C43.8964 40.3644 43.66 40.6008 43.66 40.8926V51.1073ZM54.1995 43.8765C54.1995 44.4802 53.7099 44.9698 53.1062 44.9698C52.5025 44.9698 52.0129 44.4802 52.0129 43.8765C52.0129 43.2728 52.5025 42.7832 53.1062 42.7832C53.7099 42.7832 54.1995 43.273 54.1995 43.8765ZM56.7517 51.9453V50.2276H58.4696V49.024H56.7518V47.3063H56.3401H55.5485V49.024H53.8304V50.2276H55.5485V51.6354V51.9453H56.7517Z" fill="#59606A"/>
<defs>
<filter id="filter0_d" x="36" y="33" width="28" height="28" filterUnits="userSpaceOnUse" color-interpolation-filters="sRGB">
<feFlood flood-opacity="0" result="BackgroundImageFix"/>
<feColorMatrix in="SourceAlpha" type="matrix" values="0 0 0 0 0 0 0 0 0 0 0 0 0 0 0 0 0 0 127 0"/>
<feOffset dy="1"/>
<feGaussianBlur stdDeviation="1"/>
<feColorMatrix type="matrix" values="0 0 0 0 0 0 0 0 0 0 0 0 0 0 0 0 0 0 0.153436 0"/>
<feBlend mode="normal" in2="BackgroundImageFix" result="effect1_dropShadow"/>
<feBlend mode="normal" in="SourceGraphic" in2="effect1_dropShadow" result="shape"/>
</filter>
</defs>
</svg>
