<svg width="58" height="58" viewBox="0 0 58 58" fill="none" xmlns="http://www.w3.org/2000/svg">
<circle cx="29" cy="29" r="29" fill="#F3F3F3"/>
<path d="M24.3326 29.2131V22.5196C24.3326 22.2071 24.1717 21.9137 23.916 21.7432C23.3006 21.3361 22.9409 20.6545 22.9409 19.9255V12.9858C22.9409 10.0604 25.3267 7.6746 28.2521 7.6746H29.748C32.6734 7.6746 35.0592 10.0604 35.0592 12.9858V19.9255C35.0592 20.6545 34.69 21.3361 34.0841 21.7432C33.819 21.9137 33.6675 22.2071 33.6675 22.5196V29.2131C33.6675 29.6864 33.9421 30.1219 34.3681 30.3302C35.2486 30.7563 39.8308 33.0758 44.0533 36.5503C44.6119 37.0142 44.9338 37.6959 44.9338 38.4249V43.1776C44.9338 43.6983 45.3503 44.1148 45.8711 44.1148C46.3918 44.1148 46.8083 43.6983 46.8083 43.1776V38.4249C46.8083 37.1279 46.2403 35.916 45.2462 35.1018C41.2699 31.8356 36.9906 29.5539 35.5421 28.8249V22.9835C36.4225 22.2166 36.9338 21.1089 36.9338 19.916V12.9858C36.9338 9.01898 33.7148 5.80005 29.748 5.80005H28.2521C24.2853 5.80005 21.0663 9.01898 21.0663 12.9858V19.9255C21.0663 21.1089 21.5776 22.2261 22.458 22.9929V28.8344C21.019 29.5634 16.7302 31.845 12.7539 35.1113C11.7598 35.9255 11.1918 37.1373 11.1918 38.4344V43.187C11.1918 43.7077 11.6083 44.1243 12.1291 44.1243C12.6498 44.1243 13.0663 43.7077 13.0663 43.187V38.4344C13.0663 37.7054 13.3882 37.0237 13.9468 36.5598C18.1693 33.0853 22.761 30.7752 23.632 30.3397C24.058 30.1219 24.3326 29.6864 24.3326 29.2131Z" fill="#59606A"/>
<path d="M31.2912 30.1978C30.7705 30.1978 30.3539 30.6143 30.3539 31.135C30.3539 31.5327 30.1835 31.883 29.9184 32.1291C29.8616 32.167 29.8048 32.2049 29.7575 32.2617C29.5397 32.4037 29.2746 32.4983 29.0001 32.4983C28.2521 32.4983 27.6368 31.8924 27.6368 31.135C27.6368 30.6143 27.2202 30.1978 26.6995 30.1978C26.1788 30.1978 25.7622 30.6143 25.7622 31.135C25.7622 31.9019 26.0273 32.6025 26.4817 33.1611L25.7906 49.2273C25.7811 49.5019 25.8948 49.7765 26.103 49.9658L28.309 51.954C28.4888 52.1149 28.7161 52.2001 28.9338 52.2001C29.161 52.2001 29.3882 52.1149 29.5587 51.954L31.793 49.9374C32.0013 49.7481 32.1149 49.483 32.1054 49.1989L31.3859 33.322C31.9161 32.7445 32.2379 31.9776 32.2379 31.1445C32.2285 30.6143 31.8024 30.1978 31.2912 30.1978ZM28.9149 49.9942L27.6652 48.8676L28.29 34.2972C28.5172 34.3445 28.7445 34.3729 28.9811 34.3729C29.1705 34.3729 29.3504 34.354 29.5303 34.3256L30.1835 48.8392L28.9149 49.9942Z" fill="#3C92CA"/>
</svg>
