<svg width="24" height="26" viewBox="0 0 24 26" fill="none" xmlns="http://www.w3.org/2000/svg">
<path d="M17.0239 11.1719C17.0239 10.6109 16.5576 10.1562 15.9823 10.1562H5.25309C4.67778 10.1562 4.21143 10.6109 4.21143 11.1719C4.21143 11.7328 4.67778 12.1875 5.25309 12.1875H15.9823C16.5576 12.1875 17.0239 11.7328 17.0239 11.1719Z" fill="white"/>
<path d="M5.25309 14.2188C4.67778 14.2188 4.21143 14.6734 4.21143 15.2344C4.21143 15.7953 4.67778 16.25 5.25309 16.25H11.7693C12.3446 16.25 12.811 15.7953 12.811 15.2344C12.811 14.6734 12.3446 14.2188 11.7693 14.2188H5.25309Z" fill="white"/>
<path d="M7.70101 23.9688H4.2172C3.06845 23.9688 2.13387 23.0575 2.13387 21.9375V4.0625C2.13387 2.94247 3.06845 2.03125 4.2172 2.03125H17.0239C18.1727 2.03125 19.1073 2.94247 19.1073 4.0625V10.3086C19.1073 10.8695 19.5736 11.3242 20.1489 11.3242C20.7242 11.3242 21.1906 10.8695 21.1906 10.3086V4.0625C21.1906 1.82244 19.3214 0 17.0239 0H4.2172C1.9197 0 0.0505371 1.82244 0.0505371 4.0625V21.9375C0.0505371 24.1776 1.9197 26 4.2172 26H7.70101C8.27632 26 8.74267 25.5453 8.74267 24.9844C8.74267 24.4234 8.27632 23.9688 7.70101 23.9688Z" fill="white"/>
<path d="M23.0357 14.7048C21.8173 13.5168 19.8348 13.5168 18.6171 14.704L12.8982 20.2676C12.7767 20.3858 12.6872 20.5313 12.6373 20.6914L11.3918 24.6891C11.2814 25.0436 11.3776 25.4284 11.6429 25.6936C11.8416 25.8922 12.1116 26 12.3886 26C12.4812 26 12.5748 25.9879 12.6666 25.9631L16.871 24.8276C17.044 24.7808 17.2017 24.6913 17.3288 24.5676L23.0358 19.0138C24.2542 17.8258 24.2542 15.8929 23.0357 14.7048ZM16.0509 22.9413L13.9357 23.5126L14.5547 21.5256L18.4135 17.7716L19.887 19.2082L16.0509 22.9413ZM21.5634 17.5769L21.3615 17.7733L19.8884 16.3369L20.0895 16.1412C20.4957 15.7452 21.1565 15.7452 21.5626 16.1412C21.9688 16.5372 21.9688 17.1815 21.5634 17.5769Z" fill="white"/>
<path d="M15.9823 6.09375H5.25309C4.67778 6.09375 4.21143 6.54845 4.21143 7.10938C4.21143 7.6703 4.67778 8.125 5.25309 8.125H15.9823C16.5576 8.125 17.0239 7.6703 17.0239 7.10938C17.0239 6.54845 16.5576 6.09375 15.9823 6.09375Z" fill="white"/>
</svg>
